HIERARCHY
ROOT Hips
{
    OFFSET 0.000000 0.000000 0.000000
    CHANNELS 6 Xposition Yposition Zposition Zrotation Xrotation Yrotation
    JOINT Spine
    {
        OFFSET 0.000005 10.316801 0.000003
        CHANNELS 3 Zrotation Xrotation Yrotation
        JOINT Spine1
        {
            OFFSET 0.000001 26.008713 -0.000000
            CHANNELS 3 Zrotation Xrotation Yrotation
            JOINT Neck
            {
                OFFSET -0.000003 24.799356 -0.000002
                CHANNELS 3 Zrotation Xrotation Yrotation
                JOINT Head
                {
                    OFFSET 0.000020 14.500551 2.035182
                    CHANNELS 3 Zrotation Xrotation Yrotation
                    End Site
                    {
                        OFFSET 0.000000 20.351660 0.000000
                    }
                }
            }
            JOINT LeftShoulder
            {
                OFFSET 4.036561 20.304798 -0.371914
                CHANNELS 3 Zrotation Xrotation Yrotation
                JOINT LeftArm
                {
                    OFFSET 12.502599 0.000005 -0.000001
                    CHANNELS 3 Zrotation Xrotation Yrotation
                    JOINT LeftForeArm
                    {
                        OFFSET 31.806910 0.000001 -0.000001
                        CHANNELS 3 Zrotation Xrotation Yrotation
                        JOINT LeftHand
                        {
                            OFFSET 24.843203 -0.000000 -0.000007
                            CHANNELS 3 Zrotation Xrotation Yrotation
                            JOINT LeftHandThumb1
                            {
                                OFFSET 2.126742 -2.416762 3.383460
                                CHANNELS 3 Zrotation Xrotation Yrotation
                                JOINT LeftHandThumb2
                                {
                                    OFFSET 3.212131 -0.000002 -0.000001
                                    CHANNELS 3 Zrotation Xrotation Yrotation
                                    JOINT LeftHandThumb3
                                    {
                                        OFFSET 2.745434 -0.000004 0.000001
                                        CHANNELS 3 Zrotation Xrotation Yrotation
                                        End Site
                                        {
                                            OFFSET 2.793713 0.000000 0.000000
                                        }
                                    }
                                }
                            }
                            JOINT LeftHandIndex1
                            {
                                OFFSET 8.700332 -0.000004 3.383458
                                CHANNELS 3 Zrotation Xrotation Yrotation
                                JOINT LeftHandIndex2
                                {
                                    OFFSET 4.833528 -0.000004 -0.000002
                                    CHANNELS 3 Zrotation Xrotation Yrotation
                                    JOINT LeftHandIndex3
                                    {
                                        OFFSET 2.416752 -0.000002 0.000000
                                        CHANNELS 3 Zrotation Xrotation Yrotation
                                        End Site
                                        {
                                            OFFSET 2.459254 0.000000 0.000000
                                        }
                                    }
                                }
                            }
                            JOINT LeftHandMiddle1
                            {
                                OFFSET 8.700323 0.000003 1.121382
                                CHANNELS 3 Zrotation Xrotation Yrotation
                                JOINT LeftHandMiddle2
                                {
                                    OFFSET 5.316860 -0.000001 -0.000002
                                    CHANNELS 3 Zrotation Xrotation Yrotation
                                    JOINT LeftHandMiddle3
                                    {
                                        OFFSET 2.900108 -0.000000 0.000000
                                        CHANNELS 3 Zrotation Xrotation Yrotation
                                        End Site
                                        {
                                            OFFSET 2.951103 0.000000 0.000000
                                        }
                                    }
                                }
                            }
                            JOINT LeftHandRing1
                            {
                                OFFSET 8.216992 0.000004 -1.121380
                                CHANNELS 3 Zrotation Xrotation Yrotation
                                JOINT LeftHandRing2
                                {
                                    OFFSET 4.833528 -0.000004 -0.000004
                                    CHANNELS 3 Zrotation Xrotation Yrotation
                                    JOINT LeftHandRing3
                                    {
                                        OFFSET 2.416752 -0.000002 -0.000001
                                        CHANNELS 3 Zrotation Xrotation Yrotation
                                        End Site
                                        {
                                            OFFSET 2.459254 0.000000 0.000000
                                        }
                                    }
                                }
                            }
                            JOINT LeftHandPinky1
                            {
                                OFFSET 7.733627 -0.000001 -3.383464
                                CHANNELS 3 Zrotation Xrotation Yrotation
                                JOINT LeftHandPinky2
                                {
                                    OFFSET 3.866818 0.000003 0.000001
                                    CHANNELS 3 Zrotation Xrotation Yrotation
                                    JOINT LeftHandPinky3
                                    {
                                        OFFSET 1.933421 -0.000004 -0.000004
                                        CHANNELS 3 Zrotation Xrotation Yrotation
                                        End Site
                                        {
                                            OFFSET 1.967405 0.000000 0.000000
                                        }
                                    }
                                }
                            }
                        }
                    }
                }
            }
            JOINT RightShoulder
            {
                OFFSET -4.036570 20.304804 -0.371909
                CHANNELS 3 Zrotation Xrotation Yrotation
                JOINT RightArm
                {
                    OFFSET -12.502611 -0.000002 -0.000006
                    CHANNELS 3 Zrotation Xrotation Yrotation
                    JOINT RightForeArm
                    {
                        OFFSET -31.806902 0.000000 -0.000005
                        CHANNELS 3 Zrotation Xrotation Yrotation
                        JOINT RightHand
                        {
                            OFFSET -24.843195 0.000003 -0.000004
                            CHANNELS 3 Zrotation Xrotation Yrotation
                            JOINT RightHandThumb1
                            {
                                OFFSET -2.126753 -2.416759 3.383456
                                CHANNELS 3 Zrotation Xrotation Yrotation
                                JOINT RightHandThumb2
                                {
                                    OFFSET -3.212128 -0.000001 0.000004
                                    CHANNELS 3 Zrotation Xrotation Yrotation
                                    JOINT RightHandThumb3
                                    {
                                        OFFSET -2.745447 -0.000007 -0.000007
                                        CHANNELS 3 Zrotation Xrotation Yrotation
                                        End Site
                                        {
                                            OFFSET -2.793713 0.000000 0.000000
                                        }
                                    }
                                }
                            }
                            JOINT RightHandIndex1
                            {
                                OFFSET -8.700329 -0.000002 3.383458
                                CHANNELS 3 Zrotation Xrotation Yrotation
                                JOINT RightHandIndex2
                                {
                                    OFFSET -4.833517 -0.000003 -0.000001
                                    CHANNELS 3 Zrotation Xrotation Yrotation
                                    JOINT RightHandIndex3
                                    {
                                        OFFSET -2.416758 -0.000002 -0.000001
                                        CHANNELS 3 Zrotation Xrotation Yrotation
                                        End Site
                                        {
                                            OFFSET -2.459254 0.000000 0.000000
                                        }
                                    }
                                }
                            }
                            JOINT RightHandMiddle1
                            {
                                OFFSET -8.700332 0.000004 1.121380
                                CHANNELS 3 Zrotation Xrotation Yrotation
                                JOINT RightHandMiddle2
                                {
                                    OFFSET -5.316864 -0.000003 0.000007
                                    CHANNELS 3 Zrotation Xrotation Yrotation
                                    JOINT RightHandMiddle3
                                    {
                                        OFFSET -2.900104 0.000000 0.000006
                                        CHANNELS 3 Zrotation Xrotation Yrotation
                                        End Site
                                        {
                                            OFFSET -2.951103 0.000000 0.000000
                                        }
                                    }
                                }
                            }
                            JOINT RightHandRing1
                            {
                                OFFSET -8.216980 -0.000005 -1.121383
                                CHANNELS 3 Zrotation Xrotation Yrotation
                                JOINT RightHandRing2
                                {
                                    OFFSET -4.833517 -0.000003 -0.000001
                                    CHANNELS 3 Zrotation Xrotation Yrotation
                                    JOINT RightHandRing3
                                    {
                                        OFFSET -2.416758 -0.000002 -0.000001
                                        CHANNELS 3 Zrotation Xrotation Yrotation
                                        End Site
                                        {
                                            OFFSET -2.459254 0.000000 0.000000
                                        }
                                    }
                                }
                            }
                            JOINT RightHandPinky1
                            {
                                OFFSET -7.733637 0.000001 -3.383470
                                CHANNELS 3 Zrotation Xrotation Yrotation
                                JOINT RightHandPinky2
                                {
                                    OFFSET -3.866809 -0.000001 0.000001
                                    CHANNELS 3 Zrotation Xrotation Yrotation
                                    JOINT RightHandPinky3
                                    {
                                        OFFSET -1.933413 -0.000002 -0.000008
                                        CHANNELS 3 Zrotation Xrotation Yrotation
                                        End Site
                                        {
                                            OFFSET -1.967405 0.000000 0.000000
                                        }
                                    }
                                }
                            }
                        }
                    }
                }
            }
        }
    }
    JOINT LeftUpLeg
    {
        OFFSET 10.175808 -0.000002 0.000006
        CHANNELS 3 Zrotation Xrotation Yrotation
        JOINT LeftLeg
        {
            OFFSET -0.000002 -42.882900 -0.000002
            CHANNELS 3 Zrotation Xrotation Yrotation
            JOINT LeftFoot
            {
                OFFSET -0.000004 -39.006802 -0.000003
                CHANNELS 3 Zrotation Xrotation Yrotation
                JOINT LeftToeBase
                {
                    OFFSET 0.000001 -6.614292 15.263705
                    CHANNELS 3 Zrotation Xrotation Yrotation
                    End Site
                    {
                        OFFSET 0.000000 0.000000 4.070332
                    }
                }
            }
        }
    }
    JOINT RightUpLeg
    {
        OFFSET -10.175808 0.000002 -0.000006
        CHANNELS 3 Zrotation Xrotation Yrotation
        JOINT RightLeg
        {
            OFFSET -0.000002 -42.882900 -0.000002
            CHANNELS 3 Zrotation Xrotation Yrotation
            JOINT RightFoot
            {
                OFFSET -0.000003 -39.006798 -0.000001
                CHANNELS 3 Zrotation Xrotation Yrotation
                JOINT RightToeBase
                {
                    OFFSET -0.000006 -6.614290 15.263698
                    CHANNELS 3 Zrotation Xrotation Yrotation
                    End Site
                    {
                        OFFSET 0.000000 0.000000 4.070332
                    }
                }
            }
        }
    }
}
MOTION
Frames:    4
Frame Time:    0.002778
10.479871    82.970612    209.498779    8.447759    -3.047129    15.605476    0.704487    7.762933    12.693396    3.522356    7.749024    12.313037    7.781345    6.580084    -15.749329    7.781343    6.580082    -15.749337    -0.268723    -2.008045    2.264785    -49.030815    19.353901    -34.198502    -12.956133    -2.571652    -146.242722    -10.128850    -0.715288    3.703585    47.448219    38.866394    -34.355053    -35.000015    -0.000001    0.000004    -0.000000    0.000000    -0.000000    0.000003    9.999995    0.000001    -0.000000    0.000000    -0.000000    -0.000000    0.000000    -0.000000    -0.000000    0.000000    -0.000000    -0.000000    0.000000    -0.000000    -0.000000    0.000000    -0.000000    -0.000000    0.000000    -0.000000    -0.000000    0.000000    -0.000000    -0.000000    0.000000    -0.000000    0.000003    -9.999996    -0.000001    -0.000000    0.000000    -0.000000    -0.000000    0.000000    -0.000000    4.598533    -0.089913    8.921007    17.274172    23.106871    47.973541    12.770711    -13.569914    78.742203    31.488605    -5.924132    -9.273454    -47.448215    38.866405    34.355053    35.000015    0.000001    0.000000    -0.000000    0.000000    -0.000000    0.000000    9.999998    -0.000002    -0.000000    0.000000    -0.000000    -0.000000    0.000000    -0.000000    -0.000000    0.000000    -0.000000    -0.000000    0.000000    -0.000000    -0.000000    0.000000    -0.000000    -0.000000    0.000000    -0.000000    -0.000000    0.000000    -0.000000    -0.000000    0.000000    -0.000000    0.000000    -9.999994    0.000000    -0.000000    0.000000    -0.000000    -0.000000    0.000000    -0.000000    6.581667    -28.628763    -7.747372    -0.000002    53.676495    0.000003    -17.937666    -24.089216    -10.837539    -0.000001    -1.601142    -0.000001    -24.850069    -14.863786    -11.173185    0.000002    67.822876    -0.000001    18.257057    -40.645439    -18.976269    -0.000000    0.689307    0.000002    
10.499300    82.875687    209.503754    8.388033    -3.143350    15.483405    0.695741    7.812899    12.614339    3.478635    7.799251    12.236300    7.749335    6.545986    -15.646218    7.749337    6.545990    -15.646214    -0.321703    -2.002024    2.208738    -49.032513    19.288109    -34.062412    -12.974818    -2.457288    -146.154404    -10.146221    -0.721506    3.724673    47.448208    38.866405    -34.355045    -35.000023    0.000001    -0.000002    -0.000000    0.000000    -0.000000    -0.000004    9.999996    0.000002    -0.000000    0.000000    -0.000000    -0.000000    0.000000    -0.000000    -0.000000    0.000000    -0.000000    -0.000000    0.000000    -0.000000    -0.000000    0.000000    -0.000000    -0.000000    0.000000    -0.000000    -0.000000    0.000000    -0.000000    -0.000000    0.000000    -0.000000    -0.000007    -9.999992    0.000002    -0.000000    0.000000    -0.000000    -0.000000    0.000000    -0.000000    4.627619    -0.058229    8.945271    17.452509    23.238012    47.856937    12.582573    -13.460299    78.987053    31.495453    -5.933400    -9.290454    -47.448196    38.866394    34.355042    35.000023    0.000001    -0.000001    -0.000000    0.000000    -0.000000    0.000002    9.999993    -0.000000    -0.000000    0.000000    -0.000000    -0.000000    0.000000    -0.000000    -0.000000    0.000000    -0.000000    -0.000000    0.000000    -0.000000    -0.000000    0.000000    -0.000000    -0.000000    0.000000    -0.000000    -0.000000    0.000000    -0.000000    -0.000000    0.000000    -0.000000    -0.000002    -9.999993    -0.000000    -0.000000    0.000000    -0.000000    -0.000000    0.000000    -0.000000    6.716877    -28.636444    -7.719552    0.000003    53.888340    -0.000001    -18.351313    -24.171221    -10.911010    0.000000    -1.440534    0.000000    -24.844061    -14.930293    -11.167328    0.000000    68.029747    0.000001    18.280651    -40.685989    -18.813595    -0.000000    0.678101    0.000000    
10.519929    82.778336    209.509750    8.329186    -3.239173    15.352751    0.685293    7.863212    12.532816    3.426386    7.849884    12.158051    7.718258    6.510842    -15.541636    7.718261    6.510849    -15.541633    -0.365011    -1.994579    2.150237    -49.060879    19.189966    -33.904270    -12.976933    -2.359533    -146.082016    -10.145679    -0.729144    3.761901    47.448189    38.866394    -34.355038    -35.000015    0.000003    0.000006    -0.000000    0.000000    -0.000000    -0.000007    9.999995    -0.000001    -0.000000    0.000000    -0.000000    -0.000000    0.000000    -0.000000    -0.000000    0.000000    -0.000000    -0.000000    0.000000    -0.000000    -0.000000    0.000000    -0.000000    -0.000000    0.000000    -0.000000    -0.000000    0.000000    -0.000000    -0.000000    0.000000    -0.000000    -0.000004    -9.999992    -0.000004    -0.000000    0.000000    -0.000000    -0.000000    0.000000    -0.000000    4.661076    -0.025898    8.970738    17.644356    23.368563    47.734467    12.386456    -13.349092    79.222145    31.506010    -5.943526    -9.307587    -47.448204    38.866398    34.355049    35.000015    -0.000001    -0.000000    -0.000000    0.000000    -0.000000    -0.000000    9.999991    0.000001    -0.000000    0.000000    -0.000000    -0.000000    0.000000    -0.000000    -0.000000    0.000000    -0.000000    -0.000000    0.000000    -0.000000    -0.000000    0.000000    -0.000000    -0.000000    0.000000    -0.000000    -0.000000    0.000000    -0.000000    -0.000000    0.000000    -0.000000    -0.000002    -9.999991    -0.000000    -0.000000    0.000000    -0.000000    -0.000000    0.000000    -0.000000    6.850497    -28.646061    -7.691591    -0.000000    54.105072    -0.000001    -18.762024    -24.249035    -10.979650    0.000000    -1.285191    0.000001    -24.840996    -15.001829    -11.156210    0.000003    68.241142    -0.000001    18.307003    -40.725807    -18.643084    -0.000000    0.666298    0.000001    
10.538931    82.677963    209.516144    8.272714    -3.334725    15.220252    0.674374    7.914463    12.450459    3.371804    7.901475    12.079278    7.680485    6.474859    -15.427101    7.680484    6.474856    -15.427116    -0.397334    -1.989726    2.081356    -49.102631    19.074476    -33.742405    -12.847158    -2.343103    -145.960297    -10.109584    -0.735375    3.812467    47.448212    38.866398    -34.355049    -35.000034    0.000003    -0.000003    -0.000000    0.000000    -0.000000    -0.000003    9.999993    -0.000001    -0.000000    0.000000    -0.000000    -0.000000    0.000000    -0.000000    -0.000000    0.000000    -0.000000    -0.000000    0.000000    -0.000000    -0.000000    0.000000    -0.000000    -0.000000    0.000000    -0.000000    -0.000000    0.000000    -0.000000    -0.000000    0.000000    -0.000000    -0.000004    -9.999993    -0.000002    -0.000000    0.000000    -0.000000    -0.000000    0.000000    -0.000000    4.681846    0.006404    9.000478    17.832848    23.502592    47.611298    12.180547    -13.237256    79.447266    31.522453    -5.957615    -9.328975    -47.448215    38.866402    34.355049    35.000027    -0.000001    0.000000    -0.000000    0.000000    -0.000000    -0.000002    9.999995    -0.000001    -0.000000    0.000000    -0.000000    -0.000000    0.000000    -0.000000    -0.000000    0.000000    -0.000000    -0.000000    0.000000    -0.000000    -0.000000    0.000000    -0.000000    -0.000000    0.000000    -0.000000    -0.000000    0.000000    -0.000000    -0.000000    0.000000    -0.000000    0.000000    -9.999995    0.000000    -0.000000    0.000000    -0.000000    -0.000000    0.000000    -0.000000    6.981918    -28.658115    -7.669069    -0.000004    54.338318    0.000003    -19.149288    -24.360785    -11.053878    0.000000    -1.165862    0.000000    -24.839771    -15.077897    -11.138705    0.000006    68.462845    -0.000002    18.337030    -40.768383    -18.463657    0.000000    0.652558    -0.000001    
